<svg xmlns="http://www.w3.org/2000/svg" viewBox="0 0 128 128" role="img" aria-labelledby="title desc">
  <title id="title">Distance To Shore</title>
  <desc id="desc">A vessel measuring distance to a coastline.</desc>
  <rect width="128" height="128" rx="18" fill="#063b52"/>
  <path d="M0 82c16-8 29-7 43 0s27 8 43 0 27-8 42-1v47H0z" fill="#167f9d"/>
  <path d="M82 0c-5 19-1 34 13 44 10 8 17 17 16 31-1 16-13 27-30 28-12 1-23 5-32 14l79 11V0z" fill="#d7c589"/>
  <path d="M78 14c-2 12 2 22 12 30" fill="none" stroke="#6e6a45" stroke-width="5" stroke-linecap="round"/>
  <path d="M27 68l19 28 20-28z" fill="#f8f5e7"/>
  <path d="M46 68V34" fill="none" stroke="#f8f5e7" stroke-width="6" stroke-linecap="round"/>
  <path d="M34 44h25l-25 18z" fill="#e05d44"/>
  <path d="M72 72l28-8" fill="none" stroke="#f8f5e7" stroke-width="5" stroke-linecap="round" stroke-dasharray="5 9"/>
</svg>
